<?xml version="1.0" encoding="iso-8859-1"?>
<!-- Generator: Adobe Illustrator 19.0.0, SVG Export Plug-In . SVG Version: 6.00 Build 0)  -->
<svg version="1.1" id="Layer_1" xmlns="http://www.w3.org/2000/svg" xmlns:xlink="http://www.w3.org/1999/xlink" x="0px" y="0px"
	 viewBox="0 0 512.005 512.005" style="enable-background:new 0 0 512.005 512.005;" xml:space="preserve">
<g>
	<g>
		<circle cx="344.925" cy="167.029" r="13.811"/>
	</g>
</g>
<g>
	<g>
		<circle cx="63.897" cy="448.057" r="17.316"/>
	</g>
</g>
<g>
	<g>
		<path d="M506.766,119.05c-23.404-11.227-46.309-27.695-66.239-47.626c-19.927-19.927-36.394-42.829-47.621-66.231
			c-1.592-3.32-5.016-5.366-8.697-5.182l-57.562,2.811c-1.646,0.081-3.301,0.63-4.667,1.551
			c-11.221,7.56-21.228,16.794-29.743,27.446l-11.933,14.929c-3.155,3.947-2.513,9.706,1.434,12.861
			c3.947,3.156,9.706,2.515,12.862-1.434l11.933-14.929c4.596-5.749,9.693-11.02,15.231-15.755c0.043,0.138,0.091,0.275,0.134,0.412
			c8.233,26.597,22.07,51.367,39.107,73.306c1.209,1.558,2.436,3.101,3.68,4.633c6.165,7.589,12.722,14.872,19.636,21.787
			c19.75,19.75,42.48,36.774,67.463,49.333c1.758,0.883,3.527,1.745,5.307,2.584c8.728,4.112,17.737,7.651,26.956,10.506
			c0.145,0.045,0.29,0.098,0.436,0.142c-4.626,5.395-10.024,10.628-15.744,15.259l-222.35,177.743l-15.853-15.853l176.022-137.078
			c2.07-1.612,3.349-4.036,3.511-6.654c0.162-2.618-0.808-5.182-2.663-7.036c0,0-24.923-24.923-24.927-24.927
			c0.223,0.223,5.317-11.176,5.638-12.308c4.414-15.556-0.023-32.632-11.448-44.056c-14.814-14.814-38.849-17.341-56.364-5.81
			l-24.927-24.927c-1.856-1.856-4.417-2.829-7.036-2.662c-2.618,0.162-5.041,1.441-6.654,3.51l-66.244,85.065
			c-3.105,3.987-2.389,9.736,1.598,12.841c3.987,3.105,9.736,2.389,12.841-1.598l59.879-76.891l17.602,17.602
			c-4.773,7.251-7.34,15.734-7.34,24.616c0,11.796,4.808,23.407,13.15,31.748c14.792,14.792,38.886,17.316,56.364,5.81
			l17.602,17.602L175.989,386.626c-0.639,0.381-1.247,0.837-1.798,1.387c-0.015,0.015-0.026,0.031-0.04,0.045l-34.492,26.862
			c-12.068,9.398-29.323,8.328-40.137-2.486c-10.815-10.815-11.883-28.07-2.485-40.136l110.187-141.491
			c3.105-3.987,2.39-9.736-1.597-12.841c-3.988-3.105-9.736-2.389-12.842,1.598l-48.172,61.857l-15.819-15.819L271.584,86.972
			c3.155-3.947,2.513-9.706-1.434-12.861c-3.948-3.156-9.706-2.513-12.862,1.435c0,0-176.313,220.562-176.328,220.58
			c0,0-28.451,35.59-28.464,35.609l-33.894,42.399C6.765,388.933,0.175,407.576,0.048,426.626
			c-0.129,19.35,6.459,38.338,18.553,53.468c16.477,20.612,40.949,31.913,66.181,31.912c10.029,0,20.181-1.786,29.993-5.483
			c4.729-1.781,7.119-7.06,5.338-11.789c-1.781-4.729-7.062-7.118-11.789-5.336c-27.054,10.192-57.367,1.863-75.428-20.73
			c-19.253-24.084-19.254-59.033,0-83.102l27.468-34.363l17.399,17.399c-9.56,18.494-6.364,41.593,8.816,56.774
			c9.427,9.427,21.906,14.233,34.441,14.233c7.65,0,15.317-1.801,22.327-5.422l17.44,17.44l-23.213,18.555
			c-3.946,3.154-4.589,8.911-1.432,12.859c1.807,2.261,4.468,3.437,7.153,3.437c2.003,0,4.021-0.655,5.707-2.003l31.238-24.972
			c0.013-0.011,0.026-0.021,0.039-0.031l299.929-239.757c7.767-6.288,14.997-13.522,20.907-20.917
			c2.24-2.802,4.419-5.77,6.476-8.817c0.007-0.01,0.012-0.022,0.018-0.032c0.911-1.363,1.454-3.001,1.536-4.641l2.802-57.561
			C512.127,124.068,510.086,120.642,506.766,119.05z M363.728,185.839c-10.101,10.101-27.305,10.133-37.461,0.139
			c-0.05-0.049-0.104-0.09-0.154-0.139c-0.055-0.054-0.1-0.115-0.154-0.17c-8.637-8.782-10.05-22.833-3.32-33.156
			c0.027-0.042,0.05-0.087,0.077-0.128c9.026-13.738,29.4-15.771,41.011-4.159C373.961,158.46,373.948,175.619,363.728,185.839z
			 M117.293,279.982l15.986,15.986l-16.721,21.472l-16.232-16.232L117.293,279.982z M71.861,336.816l16.967-21.225l16.399,16.399
			l-16.722,21.472L71.861,336.816z M175.171,440.127l-16.679-16.679l21.472-16.721l16.433,16.433L175.171,440.127z M210.78,411.662
			l-16.266-16.267l21.471-16.721l16.021,16.021L210.78,411.662z M491.414,173.172c-0.111-0.033-0.222-0.068-0.334-0.101
			c-3.872-1.161-7.702-2.451-11.486-3.862c-22.205-8.277-42.803-20.715-61.229-35.56c-7.364-5.933-14.417-12.27-21.105-18.957
			c-19.659-19.659-36.474-42.478-48.333-67.672c-0.357-0.76-0.711-1.523-1.06-2.288c-3.526-7.733-6.544-15.7-8.978-23.844
			c-0.033-0.111-0.07-0.223-0.103-0.334l40.336-1.97c11.975,23.323,28.638,45.957,48.463,65.782
			c19.828,19.828,42.467,36.493,65.792,48.469L491.414,173.172z"/>
	</g>
</g>
<g>
</g>
<g>
</g>
<g>
</g>
<g>
</g>
<g>
</g>
<g>
</g>
<g>
</g>
<g>
</g>
<g>
</g>
<g>
</g>
<g>
</g>
<g>
</g>
<g>
</g>
<g>
</g>
<g>
</g>
</svg>
