<?xml version="1.0" encoding="iso-8859-1"?>
<!-- Generator: Adobe Illustrator 17.1.0, SVG Export Plug-In . SVG Version: 6.00 Build 0)  -->
<!DOCTYPE svg PUBLIC "-//W3C//DTD SVG 1.1//EN" "http://www.w3.org/Graphics/SVG/1.1/DTD/svg11.dtd">
<svg version="1.1" id="Capa_1" xmlns="http://www.w3.org/2000/svg" xmlns:xlink="http://www.w3.org/1999/xlink" x="0px" y="0px"
	 viewBox="0 0 487.507 487.507" style="enable-background:new 0 0 487.507 487.507;" xml:space="preserve">
<g>
	<path d="M480.381,7.123c-9.177-9.175-23.895-9.534-33.542-0.785L187.413,244.565c-1.456-0.445-2.985-0.677-4.55-0.677
		c-4.14,0-8.033,1.612-10.96,4.54l-17.589,17.589c-0.816-0.419-1.701-0.701-2.627-0.799c-24.036-2.551-47.593,5.765-64.637,22.808
		L2.197,372.879C0.79,374.285,0,376.193,0,378.182s0.79,3.897,2.197,5.303l101.824,101.823c1.406,1.407,3.314,2.197,5.303,2.197
		s3.897-0.79,5.303-2.197l84.853-84.853c17.043-17.043,25.356-40.602,22.809-64.636c-0.098-0.926-0.38-1.811-0.799-2.628
		l17.589-17.589c4.187-4.187,5.467-10.193,3.852-15.498L481.198,40.631C489.917,31.019,489.558,16.301,480.381,7.123z
		 M188.873,389.849l-79.549,79.55l-6.364-6.364l51.265-51.265c2.929-2.929,2.929-7.678,0-10.606c-2.929-2.929-7.678-2.929-10.606,0
		l-51.265,51.265l-6.364-6.364l85.207-85.206c2.929-2.929,2.929-7.678,0-10.606c-2.928-2.929-7.677-2.929-10.606,0l-85.207,85.206
		l-6.364-6.364L92,406.112c2.929-2.929,2.929-7.678,0-10.606c-2.929-2.929-7.678-2.929-10.606,0l-22.981,22.982l-6.364-6.364
		l62.579-62.579c2.929-2.929,2.929-7.678,0-10.606c-2.929-2.929-7.678-2.929-10.606,0l-62.579,62.579l-6.364-6.364l28.638-28.638
		c2.929-2.929,2.929-7.678,0-10.606c-2.928-2.929-7.677-2.929-10.606,0L24.47,384.546l-6.364-6.364l79.55-79.55
		c13.214-13.214,31.262-19.959,49.868-18.721l58.315,58.314c0.001,0.002,0.003,0.003,0.004,0.005s0.003,0.003,0.005,0.004
		l1.746,1.746C208.831,358.585,202.087,376.635,188.873,389.849z M228.471,304.996l-17.324,17.324l-45.962-45.962l17.324-17.324
		c0.195-0.194,0.512-0.194,0.707,0l45.254,45.254C228.666,304.484,228.666,304.802,228.471,304.996z M470.118,30.52L233.543,288.148
		l-34.187-34.187L456.951,17.418c3.678-3.337,9.312-3.2,12.824,0.313C473.287,21.242,473.424,26.875,470.118,30.52z"/>
	<path d="M75.736,333.28l-5.657,5.657c-2.929,2.929-2.929,7.678,0,10.607c1.465,1.464,3.384,2.197,5.304,2.197
		c1.919,0,3.839-0.732,5.303-2.196l5.657-5.657c2.929-2.929,2.929-7.678,0-10.607C83.414,330.352,78.666,330.352,75.736,333.28z"/>
	<path d="M115.334,361.565l-11.313,11.314c-2.929,2.929-2.929,7.678,0,10.606c1.464,1.465,3.384,2.197,5.303,2.197
		s3.839-0.732,5.303-2.197l11.313-11.314c2.929-2.929,2.929-7.678,0-10.606C123.012,358.635,118.263,358.636,115.334,361.565z"/>
	<path d="M143.618,333.281l-5.657,5.657c-2.929,2.929-2.929,7.678,0,10.606c1.464,1.464,3.384,2.197,5.303,2.197
		s3.839-0.732,5.303-2.197l5.657-5.657c2.929-2.929,2.929-7.678,0-10.606C151.296,330.352,146.547,330.352,143.618,333.281z"/>
</g>
<g>
</g>
<g>
</g>
<g>
</g>
<g>
</g>
<g>
</g>
<g>
</g>
<g>
</g>
<g>
</g>
<g>
</g>
<g>
</g>
<g>
</g>
<g>
</g>
<g>
</g>
<g>
</g>
<g>
</g>
</svg>
