<?xml version="1.0" encoding="iso-8859-1"?>
<!-- Generator: Adobe Illustrator 19.0.0, SVG Export Plug-In . SVG Version: 6.00 Build 0)  -->
<svg version="1.1" id="Layer_1" xmlns="http://www.w3.org/2000/svg" xmlns:xlink="http://www.w3.org/1999/xlink" x="0px" y="0px"
	 viewBox="0 0 512 512" style="enable-background:new 0 0 512 512;" xml:space="preserve">
<g>
	<g>
		<path d="M379.589,34.909L164.315,0h-1.406c-70.579,0-128,57.421-128,128c0,44.041,22.359,82.956,56.319,105.996l30.142,147.665
			c4.041,19.795,15.547,36.831,32.403,47.972c8.518,5.631,17.889,9.409,27.627,11.252c-1.125,20.153-17.873,36.205-38.303,36.205
			c-21.157,0-38.369-17.212-38.369-38.369H69.818c0,40.405,32.872,73.278,73.278,73.278c40.243,0,73.003-32.61,73.266-72.792
			c37.551-10.764,61.167-48.894,53.226-87.801l-22.224-108.873l132.225-21.442h97.502V34.909H379.589z M69.818,128
			c0-50.88,41.034-92.357,91.745-93.082l59.528,9.654v166.856l-59.528,9.654C110.853,220.357,69.818,178.88,69.818,128z
			 M203.625,406.438c-10.661,2.174-21.528,0.071-30.604-5.929c-9.075-5.999-15.272-15.171-17.446-25.83L130.5,251.839
			c10.356,2.712,21.217,4.161,32.41,4.161h1.406l48.56-7.875l22.508,110.264C239.876,380.392,225.627,401.947,203.625,406.438z
			 M360.727,188.785L256,205.768V50.233l104.727,16.983V188.785z M442.182,186.182h-46.545V69.818h46.545V186.182z"/>
	</g>
</g>
<g>
	<g>
		<rect x="122.182" y="110.545" width="58.182" height="34.909"/>
	</g>
</g>
<g>
</g>
<g>
</g>
<g>
</g>
<g>
</g>
<g>
</g>
<g>
</g>
<g>
</g>
<g>
</g>
<g>
</g>
<g>
</g>
<g>
</g>
<g>
</g>
<g>
</g>
<g>
</g>
<g>
</g>
</svg>
