<?xml version="1.0" encoding="iso-8859-1"?>
<!-- Generator: Adobe Illustrator 18.0.0, SVG Export Plug-In . SVG Version: 6.00 Build 0)  -->
<!DOCTYPE svg PUBLIC "-//W3C//DTD SVG 1.1//EN" "http://www.w3.org/Graphics/SVG/1.1/DTD/svg11.dtd">
<svg version="1.1" id="Capa_1" xmlns="http://www.w3.org/2000/svg" xmlns:xlink="http://www.w3.org/1999/xlink" x="0px" y="0px"
	 viewBox="0 0 145.911 145.911" style="enable-background:new 0 0 145.911 145.911;" xml:space="preserve">
<g>
	<path d="M145.477,73.795c-1.301-2.14-3.262-4.13-5.471-5.99c-3.701-4.64-10.131-8.57-14.68-11.78c-6-4.24-6.281,2.54-6.301,7.18
		c-1.82,0.13-3.641,0.15-5.459,0.15c-0.262,0-12.941,0.39-18.932,0.62c-10.068,0.38-20.199,0.38-30.279,0.46
		c-20.879,0.15-41.74-1.47-62.619-1.08c-0.48,0.01-0.771,0.29-0.891,0.63c-0.33,0.14-0.59,0.43-0.6,0.89
		c-0.09,3.77-0.881,7.77,0.949,11.24c0.66,1.26,1.961,1.76,3.359,1.95c0.182,0.77,0.451,1.51,0.83,2.24c1.24,2.35,4.67,2.06,6.83,2
		c14.08-0.33,28.16-0.51,42.23-1.01c14.18-0.51,55.371-1.21,61.74-1.63c1.029-0.07,2.18-0.13,3.25-0.16
		c0,1.82,0.029,3.74,0.221,4.65c0.57,2.71,2.16,3.23,4.029,2.71c0.029,0.61,0.08,1.12,0.15,1.48c1.561,7.36,10.629-1.48,12.41-3.421
		C139.286,81.605,147.936,77.835,145.477,73.795z M123.616,84.345c-0.959,0.25-1.689,0.07-2.039-0.75c-0.26-0.59-0.33-2.33-0.34-4.1
		c0-0.62,0.01-1.25,0.01-1.83c0.02-1.12,0.049-2.07,0.059-2.5c0.021-0.68-0.039-1.21-0.139-1.63c-2.391,0.04-7.57-0.15-7.801-0.15
		c-9.449,0.35-48.959,1.06-59.25,1.56c-10.389,0.51-20.799,0.69-31.199,0.9c-4.971,0.1-9.939,0.21-14.92,0.28
		c-0.621,0.01-1.221,0.04-1.77,0.04c-0.74,0.01-1.41-0.04-2-0.26c-1.08-0.39-1.852-1.35-2.15-3.64c-0.301-2.25,0.049-4.64,0.15-6.91
		c20.078-0.35,40.129,1.03,60.209,1.08c9.529,0.03,19.08-0.21,28.609-0.37c6.91-0.12,27.06-1.03,29.941-1.13
		c-0.16-3.03-1.07-9.7,3.359-7.16c0.369,0.21,0.959,0.6,1.689,1.11c3.4,2.38,9.941,7.4,11.91,9.22c0.76,0.69,1.25,1.34,1.51,1.94
		c1.17,2.61-1.74,4.45-4.57,6.26c-1.5,0.95-6.049,5.37-9.459,7.27C124.766,83.935,124.157,84.205,123.616,84.345z"/>
</g>
<g>
</g>
<g>
</g>
<g>
</g>
<g>
</g>
<g>
</g>
<g>
</g>
<g>
</g>
<g>
</g>
<g>
</g>
<g>
</g>
<g>
</g>
<g>
</g>
<g>
</g>
<g>
</g>
<g>
</g>
</svg>
